<?xml version="1.0" encoding="utf-8"?>
<!-- Generator: Adobe Illustrator 23.0.3, SVG Export Plug-In . SVG Version: 6.00 Build 0)  -->
<svg version="1.1" id="Layer_1" xmlns="http://www.w3.org/2000/svg" xmlns:xlink="http://www.w3.org/1999/xlink" x="0px" y="0px"
	 viewBox="0 0 44 44" style="enable-background:new 0 0 44 44;" xml:space="preserve">
<style type="text/css">
	.st0{fill:#B71C8B;}
	.st1{fill:#FFFFFF;}
</style>
<g>
	<path class="st0" d="M38.68,22c0,9.21-7.47,16.68-16.68,16.68c-9.21,0-16.68-7.47-16.68-16.68c0-9.21,7.47-16.68,16.68-16.68
		C31.21,5.32,38.68,12.79,38.68,22z"/>
	<path class="st0" d="M22,44C9.87,44,0,34.13,0,22C0,9.87,9.87,0,22,0c12.13,0,22,9.87,22,22C44,34.13,34.13,44,22,44z M22,3.63
		C11.87,3.63,3.63,11.87,3.63,22c0,10.13,8.24,18.37,18.37,18.37c10.13,0,18.37-8.24,18.37-18.37C40.37,11.87,32.13,3.63,22,3.63z"
		/>
</g>
<g>
	<g>
		<path class="st1" d="M31.38,13.77h-4.32l-1.2-2.62c-0.11-0.23-0.34-0.39-0.6-0.39h-6.23c-0.26,0-0.49,0.15-0.6,0.39l-1.2,2.62
			h-2.93v-0.23c0-0.36-0.29-0.66-0.66-0.66S13,13.17,13,13.53v0.23h-0.07c-1.45,0-2.63,1.18-2.63,2.63v10.9
			c0,1.45,1.18,2.63,2.63,2.63h18.46c1.45,0,2.63-1.18,2.63-2.63V16.4C34.02,14.95,32.84,13.77,31.38,13.77z M19.46,12.07h5.38
			l0.77,1.69h-6.92L19.46,12.07z M31.38,28.62H12.92c-0.73,0-1.32-0.59-1.32-1.32V16.4c0-0.73,0.59-1.32,1.32-1.32h18.46
			c0.73,0,1.32,0.59,1.32,1.32v10.9h0C32.7,28.03,32.11,28.62,31.38,28.62z"/>
	</g>
</g>
<g>
	<g>
		<path class="st1" d="M15.53,16.4h-2.1c-0.36,0-0.66,0.29-0.66,0.66s0.29,0.66,0.66,0.66h2.1c0.36,0,0.66-0.29,0.66-0.66
			S15.9,16.4,15.53,16.4z"/>
	</g>
</g>
<g>
	<g>
		<path class="st1" d="M22.15,16.4c-3,0-5.45,2.44-5.45,5.45c0,3,2.44,5.45,5.45,5.45c3,0,5.45-2.44,5.45-5.45
			C27.6,18.85,25.16,16.4,22.15,16.4z M22.15,25.99c-2.28,0-4.13-1.85-4.13-4.13s1.85-4.13,4.13-4.13c2.28,0,4.13,1.85,4.13,4.13
			S24.43,25.99,22.15,25.99z"/>
	</g>
</g>
<g>
	<g>
		<path class="st1" d="M22.15,19.04c-0.36,0-0.66,0.29-0.66,0.66s0.29,0.66,0.66,0.66c0.83,0,1.49,0.67,1.49,1.49
			c0,0.36,0.29,0.66,0.66,0.66c0.36,0,0.66-0.29,0.66-0.66C24.97,20.3,23.7,19.04,22.15,19.04z"/>
	</g>
</g>
</svg>
